<?xml version="1.0" standalone="no"?>
<!DOCTYPE svg PUBLIC "-//W3C//DTD SVG 20010904//EN"
 "http://www.w3.org/TR/2001/REC-SVG-20010904/DTD/svg10.dtd">
<svg version="1.0" xmlns="http://www.w3.org/2000/svg"
 width="260.000000pt" height="260.000000pt" viewBox="0 0 260.000000 260.000000"
 preserveAspectRatio="xMidYMid meet">
<metadata>
Created by potrace 1.11, written by Peter Selinger 2001-2013
</metadata>
<g transform="translate(0.000000,260.000000) scale(0.100000,-0.100000)"
fill="#000000" stroke="none">
<path d="M1360 1307 c0 -12 -230 -1188 -236 -1209 -5 -16 4 -18 88 -18 l93 0
60 339 c33 187 62 338 64 335 3 -2 75 -163 160 -357 86 -194 160 -354 164
-357 4 -3 81 156 170 352 89 197 164 358 168 358 3 0 12 -46 21 -102 9 -57 33
-208 54 -335 l37 -233 88 0 c63 0 89 4 89 12 0 17 -211 1212 -214 1216 -2 1
-92 -192 -201 -430 -109 -238 -200 -436 -204 -440 -3 -4 -91 186 -194 421
-182 412 -207 466 -207 448z"/>
<path d="M509 1237 c-155 -44 -250 -171 -236 -317 6 -72 33 -125 90 -177 49
-46 82 -64 219 -123 112 -49 155 -81 179 -134 23 -52 24 -100 0 -151 -77 -171
-329 -135 -357 51 -7 51 -9 51 -114 28 l-72 -17 7 -35 c22 -120 95 -221 193
-269 52 -26 67 -28 167 -28 132 0 176 16 259 95 78 73 110 149 110 260 0 108
-25 169 -98 238 -57 55 -95 76 -213 122 -158 63 -200 104 -190 183 10 72 72
117 164 117 69 0 110 -21 142 -74 l23 -36 56 32 c100 56 96 49 64 94 -40 54
-98 103 -151 127 -57 25 -178 32 -242 14z"/>
</g>
</svg>
